<svg width="1512" height="703" viewBox="0 0 1512 703" fill="none" xmlns="http://www.w3.org/2000/svg">
<rect width="840.403" height="6.98743" rx="3.49372" transform="matrix(0.621437 -0.783464 0.858102 0.513478 -69.2495 763.425)" fill="#8E8A8A"/>
<rect width="834.043" height="6.9875" rx="3.49375" transform="matrix(0.621374 0.783514 -0.85814 0.513415 455.714 105)" fill="#8E8A8A"/>
<path d="M454.996 107.184L482.584 147.868H427.409L454.996 107.184Z" fill="#8E8A8A"/>
<rect x="433.699" y="145.046" width="8.00925" height="4.36868" fill="#8E8A8A"/>
<rect x="459.183" y="145.775" width="16.3826" height="6.55302" fill="#8E8A8A"/>
<rect x="424.946" y="142.134" width="19.4425" height="7.28114" rx="3.64057" transform="rotate(29.8558 424.946 142.134)" fill="#8E8A8A"/>
<rect x="454.141" y="140.678" width="22.4484" height="7.28114" rx="3.64057" transform="rotate(45.0286 454.141 140.678)" fill="#8E8A8A"/>
<rect x="459.969" y="154.939" width="26.2279" height="7.28114" rx="3.64057" transform="rotate(-26.4425 459.969 154.939)" fill="#8E8A8A"/>
<rect x="432.607" y="151.851" width="25.2398" height="7.28114" rx="3.64057" transform="rotate(-26.4425 432.607 151.851)" fill="#8E8A8A"/>
<path d="M963.224 21.8068L947 719L393 702.5L963.224 21.8068Z" fill="#101010"/>
<rect width="922.011" height="19.1932" rx="9.59662" transform="matrix(0.621437 -0.783464 0.858102 0.513478 381.066 722.362)" fill="#8E8A8A"/>
<rect width="919.849" height="19.1934" rx="9.59671" transform="matrix(0.621374 0.783514 -0.85814 0.513415 961.471 0)" fill="#8E8A8A"/>
<path d="M959.5 6L1035.28 117.75H883.723L959.5 6Z" fill="#8E8A8A"/>
<rect x="901" y="110" width="22" height="12" fill="#8E8A8A"/>
<rect x="971" y="112" width="45" height="18" fill="#8E8A8A"/>
<rect x="876.956" y="102" width="53.405" height="20" rx="10" transform="rotate(29.8558 876.956 102)" fill="#8E8A8A"/>
<rect x="957.149" y="98" width="61.6618" height="20" rx="10" transform="rotate(45.0286 957.149 98)" fill="#8E8A8A"/>
<rect x="973.16" y="137.172" width="72.0434" height="20" rx="10" transform="rotate(-26.4425 973.16 137.172)" fill="#8E8A8A"/>
<rect x="898" y="128.69" width="69.3292" height="20" rx="10" transform="rotate(-26.4425 898 128.69)" fill="#8E8A8A"/>
<path d="M1311.22 192.807L1640 732L977.5 669.5L1311.22 192.807Z" fill="#101010"/>
<rect x="881" y="780.204" width="758" height="20" rx="10" transform="rotate(-55.4355 881 780.204)" fill="#E4E4E4"/>
<rect x="1316.47" y="156" width="758" height="20" rx="10" transform="rotate(55.44 1316.47 156)" fill="#E4E4E4"/>
<path d="M1314.5 181L1390.28 292.75H1238.72L1314.5 181Z" fill="#E4E4E4"/>
<rect x="1256" y="285" width="22" height="12" fill="#E4E4E4"/>
<rect x="1326" y="287" width="45" height="18" fill="#E4E4E4"/>
<rect x="1231.96" y="277" width="53.405" height="20" rx="10" transform="rotate(29.8558 1231.96 277)" fill="#E4E4E4"/>
<rect x="1312.15" y="273" width="61.6618" height="20" rx="10" transform="rotate(45.0286 1312.15 273)" fill="#E4E4E4"/>
<rect x="1328.16" y="312.172" width="72.0434" height="20" rx="10" transform="rotate(-26.4425 1328.16 312.172)" fill="#E4E4E4"/>
<rect x="1253" y="303.69" width="69.3292" height="20" rx="10" transform="rotate(-26.4425 1253 303.69)" fill="#E4E4E4"/>
</svg>
