<svg width="784" height="576" viewBox="0 0 784 576" fill="none" xmlns="http://www.w3.org/2000/svg">
<path d="M318.5 21L784 679L-111 629L318.5 21Z" fill="black"/>
<rect x="-118" y="624.204" width="758" height="20" rx="10" transform="rotate(-55.4355 -118 624.204)" fill="white"/>
<rect x="317.35" y="0.000244141" width="758" height="20" rx="10" transform="rotate(54.8349 317.35 0.000244141)" fill="white"/>
<path d="M315.5 19.0001L391.277 130.75H239.723L315.5 19.0001Z" fill="white"/>
<rect x="257" y="123" width="22" height="12" fill="white"/>
<rect x="327" y="125" width="45" height="18" fill="white"/>
<rect x="232.956" y="115" width="53.405" height="20" rx="10" transform="rotate(29.8558 232.956 115)" fill="white"/>
<rect x="313.149" y="111" width="61.6618" height="20" rx="10" transform="rotate(45.0286 313.149 111)" fill="white"/>
<rect x="329.16" y="150.172" width="72.0434" height="20" rx="10" transform="rotate(-26.4425 329.16 150.172)" fill="white"/>
<rect x="254" y="141.69" width="69.3292" height="20" rx="10" transform="rotate(-26.4425 254 141.69)" fill="white"/>
</svg>
