<svg width="68" height="68" viewBox="0 0 68 68" fill="none" xmlns="http://www.w3.org/2000/svg">
<path d="M31.4019 4.5C32.5566 2.5 35.4434 2.5 36.5981 4.5L60.8468 46.5C62.0015 48.5 60.5581 51 58.2487 51H9.75128C7.44188 51 5.99851 48.5 7.15321 46.5L31.4019 4.5Z" fill="#FCCE2A"/>
<circle cx="33.5" cy="43" r="3" fill="black"/>
<path d="M31.2411 17.0863C31.4126 17.0291 31.5922 17 31.7729 17H35.2271C35.4078 17 35.5874 17.0291 35.7589 17.0863C36.4889 17.3296 36.9607 18.0373 36.9045 18.8047L35.646 36.0053C35.5637 37.1298 34.6274 38 33.5 38C32.3726 38 31.4363 37.1297 31.354 36.0053L30.0955 18.8047C30.0393 18.0373 30.5111 17.3296 31.2411 17.0863Z" fill="black"/>
<path d="M25.4395 49.4983C25.4391 49.2221 25.6627 48.998 25.9388 48.9977L57.9987 48.9586C58.2749 48.9583 58.499 49.1818 58.4994 49.458C58.4997 49.7341 58.2761 49.9583 58 49.9586L25.9401 49.9977C25.6639 49.998 25.4398 49.7744 25.4395 49.4983Z" fill="white"/>
<rect x="35.8647" y="6" width="43.5296" height="1" rx="0.5" transform="rotate(59.855 35.8647 6)" fill="white"/>
<rect width="34.9328" height="1" rx="0.5" transform="matrix(0.50219 -0.864757 -0.864757 -0.50219 8.86475 48.1447)" fill="white"/>
</svg>
